#!OML:ASF H:\MichaelJackson\Top Level 1\Subject 1\Session 1\male.ASF
:FULLY-SPECIFIED
:DEGREES
439
root -15.0159 17.1681 1.12581 7.89581 -7.86326 -4.15105
lowerback 2.52421 1.31301 3.28395
upperback 1.87118 1.80752 0.0465746
thorax 0.605949 0.934769 -1.82522
lowerneck -7.98958 -0.433029 3.11255
upperneck 4.44151 -0.910822 -0.0214807
head 2.80087 -0.396375 -0.593821
rclavicle -1.10822e-014 -1.31198e-014
rhumerus -49.8721 -6.65412 -87.2437
rradius 54.3215
rwrist 6.24733
rhand -27.0684 -21.7457
rfingers 7.12502
rthumb -0.486157 -771.725
lclavicle -1.10822e-014 -1.31198e-014
lhumerus -35.8531 -0.103621 82.2501
lradius 31.7784
lwrist -10.3969
lhand 10.7533 12.5099
lfingers 7.12502
lthumb 35.8405 38.8655
rfemur -18.3705 0.568087 27.9464
rtibia 32.0622
rfoot -16.4965 0.936264
rtoes 14.9155
lfemur -44.4761 9.6051 -17.199
ltibia 72.6464
lfoot -6.18434 2.00981
ltoes 26.7307
440
root -15.0131 17.169 1.25105 7.94669 -8.30603 -4.30839
lowerback 2.41289 1.37539 3.37385
upperback 1.83983 1.8885 0.0624852
thorax 0.643144 0.976228 -1.85783
lowerneck -7.94137 -0.369195 3.19057
upperneck 4.46563 -0.829046 -0.0743621
head 2.8013 -0.355998 -0.620496
rclavicle -4.39811e-014 2.34566e-014
rhumerus -49.9012 -6.54442 -87.3001
rradius 54.6981
rwrist 6.27421
rhand -27.2779 -21.8105
rfingers 7.12502
rthumb -0.68852 -771.789
lclavicle -4.39811e-014 2.34566e-014
lhumerus -36.9023 -0.478689 82.7685
lradius 32.4495
lwrist -8.45364
lhand 12.6192 13.5283
lfingers 7.12502
lthumb 37.6061 39.4336
rfemur -17.6401 0.78828 28.019
rtibia 31.5974
rfoot -16.8129 0.993517
rtoes 14.5947
lfemur -44.6028 9.66034 -17.0986
ltibia 70.3383
lfoot -6.48502 1.94726
ltoes 26.1943
441
root -15.0103 17.1705 1.37782 8.02233 -8.72663 -4.47186
lowerback 2.26449 1.43617 3.46959
upperback 1.79941 1.96596 0.0829299
thorax 0.691834 1.01606 -1.88784
lowerneck -7.88471 -0.308135 3.26498
upperneck 4.48717 -0.750403 -0.123398
head 2.79933 -0.317129 -0.645399
rclavicle -2.98177e-014 5.56597e-015
rhumerus -49.959 -6.4496 -87.3334
rradius 55.1163
rwrist 6.27221
rhand -27.353 -21.8674
rfingers 7.12502
rthumb -0.761062 -771.846
lclavicle -2.98177e-014 5.56597e-015
lhumerus -37.9325 -0.858443 83.3253
lradius 33.0919
lwrist -6.8632
lhand 13.7235 14.3087
lfingers 7.12502
lthumb 38.6488 39.9284
rfemur -16.898 0.94376 28.0952
rtibia 31.0674
rfoot -17.1262 1.08107
rtoes 14.1815
lfemur -44.6673 9.75147 -16.9973
ltibia 67.8592
lfoot -6.71 1.83233
ltoes 25.6627
442
root -15.0076 17.1726 1.50612 8.12055 -9.12395 -4.63872
lowerback 2.0785 1.49601 3.56774
upperback 1.75462 2.04046 0.104985
thorax 0.75714 1.05467 -1.91614
lowerneck -7.83396 -0.249178 3.33302
upperneck 4.51118 -0.67485 -0.160013
head 2.79938 -0.279407 -0.665395
rclavicle -5.11871e-015 2.34566e-014
rhumerus -50.0408 -6.37581 -87.3454
rradius 55.5728
rwrist 6.2252
rhand -27.3386 -21.8558
rfingers 7.12502
rthumb -0.747089 -771.834
lclavicle -5.11871e-015 2.34566e-014
lhumerus -38.9319 -1.25522 83.9202
lradius 33.6953
lwrist -5.62705
lhand 14.0888 14.7923
lfingers 7.12502
lthumb 38.9932 40.3142
rfemur -16.1475 1.03159 28.1712
rtibia 30.4805
rfoot -17.4392 1.2082
rtoes 13.7109
lfemur -44.6742 9.88637 -16.904
ltibia 65.2259
lfoot -6.87036 1.70062
ltoes 25.0867
443
root -15.005 17.1752 1.63618 8.24179 -9.49608 -4.804
lowerback 1.84717 1.5494 3.65605
upperback 1.71477 2.1038 0.135499
thorax 0.851758 1.08814 -1.9283
lowerneck -7.81939 -0.188111 3.38689
upperneck 4.5446 -0.596615 -0.193614
head 2.80962 -0.240347 -0.682129
rclavicle -2.75317e-014 -4.77083e-015
rhumerus -50.1308 -6.29429 -87.3379
rradius 56.0755
rwrist 6.10974
rhand -27.2249 -21.8305
rfingers 7.12502
rthumb -0.63735 -771.809
lclavicle -2.75317e-014 -4.77083e-015
lhumerus -39.8792 -1.64606 84.5588
lradius 34.2444
lwrist -4.75247
lhand 13.778 14.9343
lfingers 7.12502
lthumb 38.7002 40.5395
rfemur -15.394 1.0395 28.2398
rtibia 29.8467
rfoot -17.7564 1.3856
rtoes 13.1696
lfemur -44.6291 10.0649 -16.8305
ltibia 62.4583
lfoot -6.97624 1.60052
ltoes 24.7502
444
root -15.0026 17.1776 1.7677 8.38751 -9.84075 -4.96608
lowerback 1.57304 1.60101 3.73664
upperback 1.67081 2.16244 0.167544
thorax 0.965623 1.1195 -1.93287
lowerneck -7.82061 -0.129586 3.43104
upperneck 4.58974 -0.522236 -0.215133
head 2.82681 -0.202781 -0.693594
rclavicle -1.52567e-014 -9.14409e-015
rhumerus -50.247 -6.22226 -87.3154
rradius 56.6181
rwrist 5.9233
rhand -27.0281 -21.8225
rfingers 7.12502
rthumb -0.447211 -771.802
lclavicle -1.52567e-014 -9.14409e-015
lhumerus -40.7894 -2.05938 85.239
lradius 34.7417
lwrist -4.22635
lhand 12.8608 14.7673
lfingers 7.12502
lthumb 37.8344 40.6114
rfemur -14.6482 0.967291 28.2994
rtibia 29.1787
rfoot -18.0787 1.61997
rtoes 12.615
lfemur -44.5441 10.2875 -16.7845
ltibia 59.5795
lfoot -7.05459 1.57779
ltoes 24.6664
445
root -15.0005 17.1794 1.90044 8.55845 -10.1588 -5.13309
lowerback 1.2596 1.651 3.81625
upperback 1.6214 2.21673 0.203494
thorax 1.0956 1.14889 -1.93127
lowerneck -7.83104 -0.0746825 3.46709
upperneck 4.64295 -0.452912 -0.226805
head 2.84843 -0.167409 -0.700771
rclavicle -1.54058e-015 2.78299e-014
rhumerus -50.3838 -6.148 -87.2835
rradius 57.1898
rwrist 5.67381
rhand -26.7595 -21.8627
rfingers 7.12502
rthumb -0.187815 -771.842
lclavicle -1.54058e-015 2.78299e-014
lhumerus -41.6624 -2.48719 85.9544
lradius 35.1836
lwrist -4.02939
lhand 11.4506 14.3577
lfingers 7.12502
lthumb 36.5009 40.5495
rfemur -13.9177 0.826814 28.359
rtibia 28.4901
rfoot -18.4023 1.9039
rtoes 12.0573
lfemur -44.4319 10.5585 -16.7628
ltibia 56.6162
lfoot -7.11823 1.66391
ltoes 24.7373
446
root -14.9986 17.1803 2.03433 8.75002 -10.4479 -5.30159
lowerback 0.917764 1.7006 3.8945
upperback 1.56052 2.26885 0.239929
thorax 1.22964 1.17714 -1.92724
lowerneck -7.84135 -0.0267349 3.49807
upperneck 4.70721 -0.393098 -0.228506
head 2.87362 -0.136348 -0.704315
rclavicle -1.51573e-014 7.95139e-015
rhumerus -50.5528 -6.07219 -87.2472
rradius 57.781
rwrist 5.37706
rhand -26.4546 -21.9621
rfingers 7.12502
rthumb 0.106717 -771.942
lclavicle -1.51573e-014 7.95139e-015
lhumerus -42.507 -2.93134 86.6979
lradius 35.5689
lwrist -4.12661
lhand 9.64835 13.7279
lfingers 7.12502
lthumb 34.7927 40.3321
rfemur -13.2052 0.623649 28.4144
rtibia 27.7952
rfoot -18.7284 2.2333
rtoes 11.5287
lfemur -44.2993 10.8667 -16.7699
ltibia 53.5964
lfoot -7.21754 1.88944
ltoes 24.9163
447
root -14.9969 17.1793 2.16897 8.9601 -10.7143 -5.47883
lowerback 0.554611 1.74968 3.97496
upperback 1.49442 2.31867 0.280361
thorax 1.37019 1.2043 -1.91928
lowerneck -7.87739 0.0162579 3.52422
upperneck 4.79181 -0.34082 -0.22747
head 2.91052 -0.108739 -0.706716
rclavicle -2.80286e-014 3.45885e-014
rhumerus -50.737 -5.97309 -87.2148
rradius 58.3878
rwrist 5.06007
rhand -26.1645 -22.1048
rfingers 7.12502
rthumb 0.386883 -772.084
lclavicle -2.80286e-014 3.45885e-014
lhumerus -43.3121 -3.37838 87.461
lradius 35.9059
lwrist -4.46976
lhand 7.57555 12.9683
lfingers 7.12502
lthumb 32.8234 40.0056
rfemur -12.5136 0.380556 28.4736
rtibia 27.1049
rfoot -19.0545 2.59498
rtoes 11.0499
lfemur -44.1586 11.2179 -16.8031
ltibia 50.5525
lfoot -7.33998 2.27226
ltoes 25.0443
448
root -14.9954 17.176 2.30366 9.18657 -10.9594 -5.67361
lowerback 0.18782 1.79886 4.06272
upperback 1.41962 2.36778 0.329218
thorax 1.50387 1.2309 -1.90632
lowerneck -7.93173 0.0545668 3.54335
upperneck 4.88875 -0.294969 -0.225973
head 2.95503 -0.0842657 -0.708169
rclavicle 1.05356e-014 -1.63003e-014
rhumerus -50.9342 -5.84091 -87.1888
rradius 58.9995
rwrist 4.75939
rhand -25.8884 -22.3189
rfingers 7.12502
rthumb 0.653562 -772.298
lclavicle 1.05356e-014 -1.63003e-014
lhumerus -44.0781 -3.82228 88.2414
lradius 36.2017
lwrist -4.99639
lhand 5.36307 12.1572
lfingers 7.12502
lthumb 30.7162 39.6124
rfemur -11.8465 0.114759 28.5471
rtibia 26.4289
rfoot -19.3786 2.96948
rtoes 10.6168
lfemur -44.0219 11.602 -16.8497
ltibia 47.5197
lfoot -7.49936 2.8417
ltoes 25.1767
449
root -14.9938 17.1699 2.43835 9.42509 -11.1862 -5.88258
lowerback -0.178309 1.84827 4.15904
upperback 1.33906 2.41634 0.383942
thorax 1.63144 1.2571 -1.8918
lowerneck -7.99747 0.0869831 3.5528
upperneck 4.98785 -0.256526 -0.223456
head 3.00236 -0.063584 -0.707979
rclavicle 2.87244e-014 3.02153e-014
rhumerus -51.147 -5.66779 -87.1747
rradius 59.6208
rwrist 4.51685
rhand -25.648 -22.6209
rfingers 7.12502
rthumb 0.885726 -772.599
lclavicle 2.87244e-014 3.02153e-014
lhumerus -44.8004 -4.25896 89.0304
lradius 36.4691
lwrist -5.62884
lhand 3.11299 11.2999
lfingers 7.12502
lthumb 28.5685 39.1371
rfemur -11.2032 -0.169064 28.6291
rtibia 25.777
rfoot -19.703 3.36326
rtoes 10.2789
lfemur -43.8969 12.0034 -16.9077
ltibia 44.5344
lfoot -7.68735 3.61129
ltoes 25.1448
450
root -14.992 17.1609 2.5724 9.66835 -11.403 -6.10756
lowerback -0.524574 1.90321 4.26733
upperback 1.24961 2.47246 0.439022
thorax 1.73983 1.28675 -1.88382
lowerneck -8.06292 0.112638 3.55922
upperneck 5.08451 -0.227164 -0.215246
head 3.04867 -0.0472812 -0.70579
rclavicle -2.55438e-014 2.14687e-014
rhumerus -51.3687 -5.45663 -87.1776
rradius 60.2365
rwrist 4.38988
rhand -25.471 -22.9265
rfingers 7.12502
rthumb 1.05663 -772.904
lclavicle -2.55438e-014 2.14687e-014
lhumerus -45.492 -4.70992 89.8217
lradius 36.7335
lwrist -6.2804
lhand 0.94762 10.514
lfingers 7.12502
lthumb 26.4977 38.6812
rfemur -10.5799 -0.444143 28.7212
rtibia 25.1555
rfoot -20.0323 3.75202
rtoes 9.989
lfemur -43.7868 12.3962 -16.9557
ltibia 41.6347
lfoot -7.8964 4.6016
ltoes 24.9476
